<svg width="16" height="17" viewBox="0 0 16 17" fill="none" xmlns="http://www.w3.org/2000/svg">
<g clip-path="url(#clip0_169_112)">
<path fill-rule="evenodd" clip-rule="evenodd" d="M8 0.5C6.68024 0.504139 5.40548 0.980135 4.406 1.842C3.64 2.502 3.085 3.362 2.942 4.225C1.266 4.595 0 6.055 0 7.818C0 9.866 1.708 11.5 3.781 11.5H7.5V6.207L5.354 8.354C5.26011 8.44789 5.13278 8.50063 5 8.50063C4.86722 8.50063 4.73989 8.44789 4.646 8.354C4.55211 8.26011 4.49937 8.13278 4.49937 8C4.49937 7.86722 4.55211 7.73989 4.646 7.646L7.646 4.646C7.69245 4.59944 7.74762 4.56249 7.80837 4.53729C7.86911 4.51208 7.93423 4.49911 8 4.49911C8.06577 4.49911 8.13089 4.51208 8.19163 4.53729C8.25238 4.56249 8.30755 4.59944 8.354 4.646L11.354 7.646C11.4479 7.73989 11.5006 7.86722 11.5006 8C11.5006 8.13278 11.4479 8.26011 11.354 8.354C11.2601 8.44789 11.1328 8.50063 11 8.50063C10.8672 8.50063 10.7399 8.44789 10.646 8.354L8.5 6.207V11.5H12.688C14.502 11.5 16 10.07 16 8.273C16 6.637 14.758 5.304 13.166 5.079C12.923 2.499 10.69 0.5 8 0.5ZM7.5 15V11.5H8.5V15C8.5 15.1326 8.44732 15.2598 8.35355 15.3536C8.25979 15.4473 8.13261 15.5 8 15.5C7.86739 15.5 7.74021 15.4473 7.64645 15.3536C7.55268 15.2598 7.5 15.1326 7.5 15Z" fill="#C5C5C5"/>
</g>
<defs>
<clipPath id="clip0_169_112">
<rect width="16" height="16" fill="white" transform="translate(0 0.5)"/>
</clipPath>
</defs>
</svg>
