<svg width="275" height="275" viewBox="0 0 275 275" fill="none" xmlns="http://www.w3.org/2000/svg">
<g filter="url(#filter0_d_135_422)">
<path d="M265.036 1.99277L9.96387 257.065" stroke="#87C0F4" stroke-width="1.266" stroke-miterlimit="10" stroke-dasharray="3.78 3.78"/>
<path d="M136.958 251.964C112.636 251.964 88.8595 244.75 68.6361 231.237C48.4126 217.724 32.6503 198.519 23.3426 176.047C14.0347 153.576 11.5994 128.85 16.3445 104.995C21.0896 81.1396 32.802 59.2272 50.0006 42.0286C67.1991 24.8299 89.1116 13.1175 112.967 8.37242C136.822 3.62733 161.548 6.06268 184.02 15.3705C206.491 24.6783 225.697 40.4405 239.21 60.664C252.723 80.8875 259.935 104.664 259.935 128.986C259.935 161.602 246.978 192.881 223.916 215.945C200.854 239.007 169.574 251.964 136.958 251.964Z" fill="white"/>
<path d="M136.958 251.964C112.636 251.964 88.8595 244.75 68.6361 231.237C48.4126 217.724 32.6503 198.519 23.3426 176.047C14.0347 153.576 11.5994 128.85 16.3445 104.995C21.0896 81.1396 32.802 59.2272 50.0006 42.0286C67.1991 24.8299 89.1116 13.1175 112.967 8.37242C136.822 3.62733 161.548 6.06268 184.02 15.3705C206.491 24.6783 225.697 40.4405 239.21 60.664C252.723 80.8875 259.935 104.664 259.935 128.986C259.935 161.602 246.978 192.881 223.916 215.945C200.854 239.007 169.574 251.964 136.958 251.964Z" fill="#C4C4C4"/>
<path d="M58.1627 62.5812C46.7702 62.639 43.0178 75.0101 54.1454 86.6816C61.7868 94.4384 70.1834 101.413 79.2102 107.502C79.2102 107.502 70.8825 139.41 83.112 160.944C95.3415 182.477 113.84 196.456 137.01 205.72C149.902 211.078 163.439 214.727 177.278 216.572L221.66 246.512L266.983 197.363C266.983 197.363 214.829 141.951 203.143 123.432C191.458 104.913 114.075 66.0626 87.7073 75.7673C87.7073 75.7673 69.5573 62.5235 58.1627 62.5812Z" fill="#F9D2DD"/>
<path d="M101.612 122.74L83.799 74.1173L72.6675 103.012L101.612 122.74Z" fill="#F9ACC0"/>
<path d="M192.881 173.985C191.358 173.172 188.447 171.195 186.209 169.653C186.175 146.175 182.071 122.881 174.079 100.805C172.921 100.141 171.744 99.4769 170.55 98.8125L155.473 100.935L168.505 215.176C170.996 215.67 173.019 216.003 174.484 216.216C176.183 213.988 177.652 211.595 178.868 209.07L177.762 216.746L193.305 227.232C190.17 217.511 189.411 207.181 191.091 197.107C193.417 184.019 206.435 179.061 206.435 179.061C201.685 178.072 197.113 176.36 192.881 173.985Z" fill="#F9ACC0"/>
<path d="M94.7319 202.249C92.0086 202.255 89.3935 201.182 87.4579 199.266C85.5224 197.351 84.4236 194.747 84.4015 192.023L83.6861 51.4007C83.6807 48.6778 84.753 46.0633 86.6688 44.1281C88.5844 42.193 91.188 41.0944 93.9109 41.0723L167.182 40.6996C169.906 40.6938 172.521 41.7657 174.456 43.6816C176.392 45.5974 177.491 48.2013 177.513 50.9244L178.224 191.551C178.23 194.274 177.158 196.889 175.242 198.824C173.326 200.76 170.723 201.858 167.999 201.882L94.7319 202.249Z" fill="#3D5CFF"/>
<path d="M150.272 44.2429L150.29 48.7625C150.29 49.827 149.869 50.8485 149.119 51.6039C148.369 52.3596 147.351 52.788 146.286 52.7958L114.454 52.9592C113.39 52.9604 112.368 52.5407 111.612 51.7921C110.856 51.0432 110.426 50.0259 110.417 48.9618L110.395 44.4462L97.9183 44.5099C95.4089 44.5301 93.0092 45.5424 91.2438 47.3261C89.4784 49.1098 88.4906 51.5199 88.4966 54.0293L89.1821 188.379C89.202 190.888 90.2146 193.288 91.9983 195.053C93.782 196.819 96.1918 197.807 98.7015 197.801L163.532 197.472C166.041 197.452 168.441 196.439 170.206 194.656C171.972 192.872 172.959 190.462 172.953 187.952L172.266 53.6029C172.244 51.0934 171.231 48.6941 169.447 46.9288C167.664 45.1634 165.254 44.175 162.745 44.1792L150.272 44.2429Z" fill="white"/>
<path d="M97.95 87.6868C96.5372 87.6868 95.3754 86.1523 95.3594 84.2533L95.3196 71.131C95.3196 69.2319 96.4614 67.6715 97.8763 67.6636L106.748 67.6018C108.161 67.6018 109.323 69.1362 109.339 71.0353L109.388 84.1576C109.388 86.0527 108.247 87.613 106.832 87.625L97.95 87.6868Z" fill="#EAEAFF"/>
<path d="M116.026 87.6868C114.613 87.6868 113.451 86.1523 113.435 84.2533L113.395 71.131C113.395 69.2319 114.537 67.6715 115.952 67.6636L124.824 67.6018C126.237 67.6018 127.398 69.1362 127.414 71.0353L127.464 84.1576C127.464 86.0527 126.322 87.613 124.907 87.625L116.026 87.6868Z" fill="#EAEAFF"/>
<path d="M134.103 87.6868C132.69 87.6868 131.528 86.1523 131.512 84.2533L131.472 71.131C131.472 69.2319 132.614 67.6715 134.029 67.6636L142.901 67.6018C144.313 67.6018 145.475 69.1362 145.491 71.0353L145.541 84.1576C145.541 86.0527 144.399 87.613 142.984 87.625L134.103 87.6868Z" fill="#EAEAFF"/>
<path d="M152.179 87.6868C150.766 87.6868 149.604 86.1523 149.588 84.2533L149.548 71.131C149.548 69.2319 150.69 67.6715 152.105 67.6636L160.977 67.6018C162.389 67.6018 163.551 69.1362 163.567 71.0353L163.617 84.1576C163.617 86.0527 162.475 87.613 161.06 87.625L152.179 87.6868Z" fill="#EAEAFF"/>
<path d="M89.1512 183.915L88.7407 102.985L89.1114 183.921L89.1512 183.915Z" fill="#EAEAFF"/>
<path d="M106.417 153.557C107.987 151.936 109.215 150.015 110.027 147.91C110.839 145.804 111.219 143.557 111.144 141.301C110.729 133.894 102.236 128.109 102.236 128.109C104.403 126.036 105.988 123.43 106.833 120.552C107.677 117.674 107.752 114.625 107.049 111.709C105.114 103.848 94.4742 101.873 88.7351 101.163V102.987L89.1556 183.916C94.277 183.235 100.116 179.255 104.482 172.131C109.569 163.825 106.417 153.557 106.417 153.557Z" fill="#EAEAFF"/>
<path d="M177.247 117.708L172.548 109.43L172.76 150.983C174.372 154.724 175.597 157.121 175.597 157.121L177.247 117.708Z" fill="#EAEAFF"/>
<path d="M172.758 150.982L172.546 109.429L163.908 94.2042C163.908 94.2042 163.328 118.008 166.066 130.909C167.66 137.796 169.9 144.516 172.758 150.982Z" fill="#EAEAFF"/>
<path d="M178.157 155.385C176.828 150.618 178.755 141.87 176.981 138.803C171.776 129.822 166.4 119.497 164.351 112.1C159.913 96.0306 161.173 79.9392 170.208 77.5518C179.243 75.1645 188.043 92.5393 191.096 99.225C194.149 105.911 208.022 132.982 208.022 132.982L203.056 173.634C203.056 173.634 185.185 180.571 178.157 155.385Z" fill="#F9D2DD"/>
<path d="M103.328 106.04C110.068 113.379 105.423 122.45 101.415 125.148C99.3959 126.646 97.0604 127.661 94.588 128.116C94.588 128.116 105.636 131.18 106.855 140.536C107.402 143.31 106.836 146.188 105.281 148.549C103.724 150.909 101.303 152.564 98.5377 153.154C100.369 154.403 101.794 156.159 102.64 158.207C103.485 160.256 103.712 162.506 103.294 164.683C101.654 172.056 92.6232 174.788 84.5784 174.497C76.5337 174.206 58.4215 170.603 61.9009 130.041C64.91 94.98 96.5907 98.7005 103.328 106.04Z" fill="#F9D2DD"/>
<path d="M85.7603 120.931C85.7603 120.931 98.9803 122.874 100.282 115.152C102.422 102.448 85.6826 105.867 85.6826 105.867L85.7603 120.931Z" fill="#F9E1E8"/>
<path d="M86.0814 148.101C86.0814 148.101 99.3013 150.044 100.603 142.322C102.743 129.614 86.0037 133.04 86.0037 133.04L86.0814 148.101Z" fill="#F9E1E8"/>
<path d="M85.9791 169.241C85.9791 169.241 97.0887 170.875 98.1847 164.392C99.9881 153.709 85.9153 156.585 85.9153 156.585L85.9791 169.241Z" fill="#F9E1E8"/>
<path d="M206.434 179.06C198.024 177.955 190.253 173.983 184.433 167.813C174.691 157.478 177.979 143.529 177.979 143.529" stroke="#1F1F39" stroke-width="0.501" stroke-miterlimit="10"/>
<path d="M79.8464 152.923L98.8732 153.07C101.212 152.506 103.29 151.165 104.766 149.265C106.241 147.365 107.028 145.02 106.996 142.614C106.569 144.666 105.529 146.539 104.012 147.985C102.496 149.431 100.576 150.382 98.5066 150.711C93.6901 151.829 79.8464 152.923 79.8464 152.923Z" fill="#F9ACC0"/>
<path d="M84.302 172.091C78.0709 171.424 72.3276 168.409 68.2405 163.658C66.3513 161.229 64.6953 158.626 63.2944 155.886C67.6586 172.333 78.7582 174.279 84.581 174.495C92.2611 174.774 100.84 172.303 103.024 165.649C102.423 166.688 101.618 167.596 100.659 168.317C95.8437 171.515 90.0314 172.856 84.302 172.091Z" fill="#F9ACC0"/>
<path d="M101.418 125.147C105.005 122.735 109.072 115.253 105.119 108.457C106.08 110.328 106.366 112.473 105.93 114.531C104.315 121.733 99.4691 124.232 92.8492 125.555C87.9711 126.449 83.0486 127.078 78.1028 127.44L94.5928 128.112C97.0648 127.659 99.3999 126.644 101.418 125.147Z" fill="#F9ACC0"/>
<path d="M77.9443 128.023L96.8237 128.2" stroke="#1F1F39" stroke-width="0.501" stroke-miterlimit="10" stroke-linecap="round"/>
<path d="M79.8638 152.854L98.7431 153.03" stroke="#1F1F39" stroke-width="0.501" stroke-miterlimit="10" stroke-linecap="round"/>
<path d="M187.707 53.301C187.812 56.9495 188.808 60.517 190.609 63.6918C192.41 66.8667 194.96 69.5525 198.037 71.5148C198.199 74.8466 197.665 79.4479 192.918 81.5682C192.707 81.6453 192.525 81.7842 192.394 81.9668C192.245 82.1738 192.177 82.4277 192.2 82.6815C192.224 82.9354 192.339 83.172 192.524 83.3477C192.738 83.5532 193.024 83.6668 193.321 83.6646H193.4H193.418C198.422 83.43 203.155 81.3233 206.678 77.762C207.179 77.2812 207.782 76.9243 208.446 76.7204C209.11 76.5166 209.811 76.4713 210.495 76.5883C212.585 76.9709 214.705 77.1624 216.83 77.1602C232.915 77.1602 245.952 66.4771 245.952 53.299C245.952 40.1209 232.915 29.4398 216.83 29.4398C200.744 29.4398 187.707 40.1229 187.707 53.301Z" fill="#3D5CFF"/>
</g>
<defs>
<filter id="filter0_d_135_422" x="5.51636" y="1.54517" width="265.467" height="263.968" filterUnits="userSpaceOnUse" color-interpolation-filters="sRGB">
<feFlood flood-opacity="0" result="BackgroundImageFix"/>
<feColorMatrix in="SourceAlpha" type="matrix" values="0 0 0 0 0 0 0 0 0 0 0 0 0 0 0 0 0 0 127 0" result="hardAlpha"/>
<feOffset dy="4"/>
<feGaussianBlur stdDeviation="2"/>
<feComposite in2="hardAlpha" operator="out"/>
<feColorMatrix type="matrix" values="0 0 0 0 0 0 0 0 0 0 0 0 0 0 0 0 0 0 0.25 0"/>
<feBlend mode="normal" in2="BackgroundImageFix" result="effect1_dropShadow_135_422"/>
<feBlend mode="normal" in="SourceGraphic" in2="effect1_dropShadow_135_422" result="shape"/>
</filter>
</defs>
</svg>
