<svg width="16" height="17" viewBox="0 0 16 17" fill="none" xmlns="http://www.w3.org/2000/svg">
<g clip-path="url(#clip0_169_107)">
<path d="M6.10714 2.4375H8.89286C9.01599 2.4375 9.13409 2.48689 9.22116 2.57479C9.30823 2.6627 9.35714 2.78193 9.35714 2.90625V3.84375H5.64286V2.90625C5.64286 2.78193 5.69177 2.6627 5.77884 2.57479C5.86591 2.48689 5.98401 2.4375 6.10714 2.4375ZM10.2857 3.84375V2.90625C10.2857 2.53329 10.139 2.1756 9.87776 1.91188C9.61654 1.64816 9.26227 1.5 8.89286 1.5H6.10714C5.73773 1.5 5.38346 1.64816 5.12224 1.91188C4.86103 2.1756 4.71429 2.53329 4.71429 2.90625V3.84375H2.39843C2.39533 3.84372 2.39224 3.84372 2.38914 3.84375H1.46429C1.34115 3.84375 1.22306 3.89314 1.13599 3.98104C1.04892 4.06895 1 4.18818 1 4.3125C1 4.43682 1.04892 4.55605 1.13599 4.64396C1.22306 4.73186 1.34115 4.78125 1.46429 4.78125H1.96386L2.75593 14.775C2.79328 15.2449 3.00456 15.6833 3.34768 16.003C3.69081 16.3226 4.14061 16.5001 4.6075 16.5H10.3925C10.8594 16.5001 11.3092 16.3226 11.6523 16.003C11.9954 15.6833 12.2067 15.2449 12.2441 14.775L13.0361 4.78125H13.5357C13.6588 4.78125 13.7769 4.73186 13.864 4.64396C13.9511 4.55605 14 4.43682 14 4.3125C14 4.18818 13.9511 4.06895 13.864 3.98104C13.7769 3.89314 13.6588 3.84375 13.5357 3.84375H12.6118C12.6087 3.84372 12.6056 3.84372 12.6025 3.84375H10.2857ZM12.1039 4.78125L11.3183 14.7C11.2996 14.9349 11.194 15.1541 11.0224 15.314C10.8508 15.4738 10.6259 15.5625 10.3925 15.5625H4.6075C4.37405 15.5625 4.14915 15.4738 3.97759 15.314C3.80603 15.1541 3.70039 14.9349 3.68171 14.7L2.89614 4.78125H12.1039ZM5.15164 5.71875C5.27452 5.71158 5.3952 5.75397 5.48713 5.83659C5.57907 5.91922 5.63475 6.03532 5.64193 6.15937L6.10621 14.1281C6.11109 14.2507 6.06816 14.3704 5.98663 14.4614C5.9051 14.5524 5.79148 14.6075 5.67017 14.6148C5.54885 14.6222 5.42951 14.5813 5.33777 14.5008C5.24603 14.4203 5.18921 14.3067 5.1795 14.1844L4.71429 6.21563C4.71052 6.15404 4.71882 6.09232 4.73874 6.03398C4.75865 5.97565 4.78977 5.92186 4.83031 5.8757C4.87086 5.82954 4.92004 5.79191 4.97502 5.76498C5.03 5.73804 5.08971 5.72233 5.15071 5.71875H5.15164ZM9.84836 5.71875C9.90937 5.72233 9.96907 5.73804 10.0241 5.76498C10.079 5.79191 10.1282 5.82954 10.1688 5.8757C10.2093 5.92186 10.2404 5.97565 10.2603 6.03398C10.2802 6.09232 10.2886 6.15404 10.2848 6.21563L9.8205 14.1844C9.81802 14.2467 9.80326 14.3078 9.77708 14.3643C9.7509 14.4208 9.71383 14.4714 9.66804 14.5132C9.62224 14.555 9.56864 14.5872 9.51038 14.6078C9.45212 14.6285 9.39036 14.6372 9.32872 14.6335C9.26709 14.6297 9.20681 14.6136 9.15142 14.5861C9.09603 14.5585 9.04663 14.5201 9.00613 14.473C8.96563 14.426 8.93483 14.3712 8.91554 14.312C8.89625 14.2528 8.88885 14.1903 8.89379 14.1281L9.35807 6.15937C9.36525 6.03532 9.42093 5.91922 9.51287 5.83659C9.6048 5.75397 9.72548 5.71158 9.84836 5.71875ZM7.5 5.71875C7.62314 5.71875 7.74123 5.76814 7.8283 5.85604C7.91537 5.94395 7.96429 6.06318 7.96429 6.1875V14.1562C7.96429 14.2806 7.91537 14.3998 7.8283 14.4877C7.74123 14.5756 7.62314 14.625 7.5 14.625C7.37686 14.625 7.25877 14.5756 7.1717 14.4877C7.08463 14.3998 7.03571 14.2806 7.03571 14.1562V6.1875C7.03571 6.06318 7.08463 5.94395 7.1717 5.85604C7.25877 5.76814 7.37686 5.71875 7.5 5.71875Z" fill="#C5C5C5"/>
</g>
<defs>
<clipPath id="clip0_169_107">
<rect width="16" height="16" fill="white" transform="translate(0 0.5)"/>
</clipPath>
</defs>
</svg>
